<svg id="Capa_1" data-name="Capa 1" xmlns="http://www.w3.org/2000/svg" viewBox="0 0 330 330"><path d="M30.5,125.69c1.69-2.09,3.25-5.56,5.88-7,8.88-4.74,18.21-8.59,27.23-13.08,6.79-3.38,13.28-7.38,20-10.82s14-6.56,20.91-10c6.66-3.3,13.18-6.87,19.79-10.28,4.93-2.55,9.9-5,14.86-7.55,5.18-2.63,10.59-4.9,15.48-8,8.23-5.22,13.9-5,22.11.55,4.51,3,9.78,5,14.67,7.45,5.05,2.56,10,5.27,15.1,7.79s10.2,4.75,15.22,7.28,9.78,5.28,14.72,7.81c4.67,2.4,9.43,4.63,14.14,7,5.06,2.51,10.09,5.08,15.15,7.59S276,109.31,281,112s10.67,5,15,8.78c5.23,4.54,4.45,10.31-1.23,14.05-4.05,2.67-8.62,4.54-13,6.75q-11,5.58-22,11.14c-6.57,3.3-13.15,6.57-19.71,9.88-7.25,3.65-14.47,7.35-21.72,11-6.74,3.39-13.51,6.7-20.25,10.09-7.11,3.59-14.17,7.28-21.3,10.83-3.18,1.58-6.52,4.17-9.72,4.08-4.12-.12-8.33-2.12-12.21-3.94-9.5-4.48-18.85-9.26-28.2-14-8.93-4.56-17.74-9.36-26.67-13.91-8.61-4.38-17.34-8.53-26-12.86-7.2-3.62-14.32-7.41-21.53-11-4.85-2.42-9.77-4.72-14.7-7C33.91,134.06,31.71,131.15,30.5,125.69Z"/><path d="M84.92,180.32c4.22,1.72,7.62,2.86,10.81,4.44,9.73,4.82,19.43,9.71,29,14.76,6.8,3.56,13.18,8.08,20.23,11,7.39,3,14.45,8.45,23.13,6.49a70.1,70.1,0,0,0,12.68-4.69c5-2.2,9.89-4.72,14.77-7.21s9.9-5.27,14.89-7.82c4.5-2.31,9.09-4.45,13.61-6.71,5.69-2.84,11.33-5.76,17-8.57a28.46,28.46,0,0,1,4.23-1.26c.16,1.85.38,3.24.38,4.63,0,9.45-.34,18.92.11,28.35.56,11.67-5,20.14-13.06,27.41-6.23,5.6-13.55,9.22-21.37,12.29-8.08,3.18-16.58,4.09-24.66,6.43-10.82,3.15-21.42,2.28-32,1.81-8.28-.37-16.82-1.52-24.74-5-3.58-1.58-7.53-2.27-11.28-3.48a58.11,58.11,0,0,1-25.13-16.3C87.24,230,84.46,222,84.84,212.55c.36-8.77.08-17.57.08-26.36Z"/><path d="M290,157.83c.15,2.63.39,4.75.39,6.87,0,25.36.12,50.72-.09,76.08a11.72,11.72,0,0,0,3.89,9.19,15.82,15.82,0,0,1,4.56,16.31,65.89,65.89,0,0,1-6,13.42c-2.47,4.51-5.49,8.72-8.29,13.05-2.1,3.24-4.3,3.36-6.08.12-4.78-8.72-9.54-17.46-14-26.33-2.13-4.2.26-13,4.18-16.44a11.51,11.51,0,0,0,4.1-9.59c-.24-22.87.06-45.75-.26-68.62-.07-4.93,2.28-7,6-8.72S285.61,159.85,290,157.83Z"/></svg>