<svg id="Capa_1" data-name="Capa 1" xmlns="http://www.w3.org/2000/svg" viewBox="0 0 330 330"><path d="M80.28,214.69H74.39c-.88,4.93-2.2,10.11-2.64,15.37-.57,6.94-.18,13.95-.67,20.9-.93,13.13-1.88,26.28-3.57,39.32-.32,2.47-3.76,5.18-6.41,6.56-3.88,2-7.74-.15-10.16-3.13C49,291.36,47.42,288,47.41,285q-.33-66.33,0-132.66c0-8.18,3.75-14.12,11.7-18.18,4.29-2.19,8.14-2.42,12.32-2.45,19.88-.12,39.77,0,59.66-.08,3.83,0,7.18.08,10.86-3,7.38-6.19,16-10.93,24-16.35,4.36-3,10.76-1.58,14.75,3.32,2.37,2.92,1.91,9-1.52,11.91-4.52,3.78-9.4,7.13-14.25,10.48C159,142.05,153,146,147,149.8a13.64,13.64,0,0,1-6.27,2.3c-7.46.3-15,.1-22.43.21a8.74,8.74,0,0,0-8.74,8.29c-.17,2.2-.11,4.42-.11,6.63q0,58.94,0,117.87c0,7.22-6.46,13.29-13,12-3.79-.74-7.16-3.16-7.65-7.28-1.38-11.67-2.57-23.37-3.37-35.09-.54-7.79-.26-15.64-.37-23.46C84.89,225.48,85.89,219.41,80.28,214.69Z"/><path d="M130.4,193.85h134v-114h-134V59.37c1.66-.1,3.29-.27,4.93-.27q68.34,0,136.67,0c8.76,0,13.38,4.62,13.38,13.37q0,57.66,0,115.31c0,3.31-.29,5.89,4.4,6.88s7.09,6.72,6.11,11.78c-.77,4-5.39,8-9.6,8q-77.26.06-154.51,0a8.73,8.73,0,0,1-1.36-.28Z"/><path d="M77.8,110.56c-15.29.75-31-15.42-30.7-31.46.32-15.33,15.59-31,31.82-30.46s30.66,15,30.51,31.38C109.28,95.63,94.88,111.32,77.8,110.56Z"/></svg>