<?xml version="1.0" encoding="utf-8"?>
<!-- Generator: Adobe Illustrator 24.1.0, SVG Export Plug-In . SVG Version: 6.00 Build 0)  -->
<svg version="1.1" id="Capa_1" xmlns="http://www.w3.org/2000/svg" xmlns:xlink="http://www.w3.org/1999/xlink" x="0px" y="0px"
	 viewBox="0 0 32 32" style="enable-background:new 0 0 32 32;" xml:space="preserve">
<style type="text/css">
	.st0{fill-rule:evenodd;clip-rule:evenodd;fill:#F495C1;}
	.st1{opacity:0.2;fill-rule:evenodd;clip-rule:evenodd;fill:#FFFFFF;enable-background:new    ;}
	.st2{fill-rule:evenodd;clip-rule:evenodd;fill:#F8DE7F;}
	.st3{opacity:0.15;fill-rule:evenodd;clip-rule:evenodd;enable-background:new    ;}
	.st4{fill-rule:evenodd;clip-rule:evenodd;fill:#2C2E40;}
	.st5{fill-rule:evenodd;clip-rule:evenodd;fill:#FFFFFF;}
	.st6{fill-rule:evenodd;clip-rule:evenodd;fill:#8C6E8C;}
	.st7{opacity:0.1;fill-rule:evenodd;clip-rule:evenodd;fill:#FFFFFF;enable-background:new    ;}
</style>
<g>
	<g>
		<path class="st0" d="M89.87,10.23H61.56c-1.02,0-1.85-0.83-1.85-1.85V-6.19c0-1.02,0.83-1.85,1.85-1.85h28.31
			c1.02,0,1.85,0.83,1.85,1.85V8.38C91.72,9.4,90.89,10.23,89.87,10.23z"/>
		<path class="st1" d="M62.14-7.32c-0.83,0-1.52,0.42-1.72,0.99c0.2,0.57,0.89,0.99,1.72,0.99H89.3c0.83,0,1.52-0.42,1.72-0.99
			c-0.2-0.57-0.89-0.99-1.72-0.99H62.14z"/>
		<path class="st2" d="M85.84,7.08H65.6c-0.75,0-1.36,0.61-1.36,1.36v1.79H87.2V8.44C87.2,7.69,86.59,7.08,85.84,7.08z"/>
		<path class="st3" d="M90.51-7.93c0.69,0.27,1.17,1.01,1.13,1.87l-0.9,13.42c-0.04,0.91-0.8,1.65-1.7,1.65H62.39
			c-0.9,0-1.66-0.73-1.7-1.65l-0.9-13.42c-0.03-0.86,0.44-1.59,1.13-1.87c-0.71,0.26-1.21,0.94-1.21,1.73V8.38
			c0,1.02,0.83,1.85,1.85,1.85h28.31c1.02,0,1.85-0.83,1.85-1.85V-6.19C91.72-6.99,91.21-7.67,90.51-7.93z"/>
	</g>
	<g>
		<path class="st4" d="M66.16,0.04h-0.82c-0.16-0.39-0.47-0.71-0.87-0.87v-0.82c0-0.14-0.12-0.26-0.26-0.26h-0.67
			c-0.14,0-0.26,0.12-0.26,0.26v0.82c-0.39,0.16-0.71,0.47-0.87,0.87h-0.82c-0.14,0-0.26,0.12-0.26,0.26v0.67
			c0,0.14,0.12,0.26,0.26,0.26h0.82c0.16,0.39,0.47,0.71,0.87,0.87v0.82c0,0.14,0.12,0.26,0.26,0.26h0.67
			c0.14,0,0.26-0.12,0.26-0.26V2.1c0.39-0.16,0.71-0.47,0.87-0.87h0.82c0.14,0,0.26-0.12,0.26-0.26V0.3
			C66.42,0.15,66.3,0.04,66.16,0.04z"/>
		<path class="st5" d="M66.16-0.41h-0.82c-0.16-0.39-0.47-0.71-0.87-0.87V-2.1c0-0.14-0.12-0.26-0.26-0.26h-0.67
			c-0.14,0-0.26,0.12-0.26,0.26v0.82c-0.39,0.16-0.71,0.47-0.87,0.87h-0.82c-0.14,0-0.26,0.12-0.26,0.26v0.67
			c0,0.14,0.12,0.26,0.26,0.26h0.82c0.16,0.39,0.47,0.71,0.87,0.87v0.82c0,0.14,0.12,0.26,0.26,0.26h0.67
			c0.14,0,0.26-0.12,0.26-0.26V1.65c0.39-0.16,0.71-0.47,0.87-0.87h0.82c0.14,0,0.26-0.12,0.26-0.26v-0.67
			C66.42-0.3,66.3-0.41,66.16-0.41z"/>
	</g>
	<g>
		<g>
			<g>
				<circle class="st4" cx="85.94" cy="0.34" r="1.08"/>
				<path class="st4" d="M88.74-2.09c0,0.6-0.48,1.08-1.08,1.08s-1.08-0.48-1.08-1.08s0.48-1.08,1.08-1.08S88.74-2.69,88.74-2.09z"
					/>
				<circle class="st2" cx="85.94" cy="-0.08" r="1.08"/>
			</g>
			<circle class="st2" cx="87.67" cy="-2.51" r="1.08"/>
		</g>
		<g>
			<g>
				<circle class="st4" cx="86.8" cy="3.72" r="1.08"/>
				<circle class="st4" cx="88.53" cy="1.29" r="1.08"/>
				<circle class="st2" cx="86.8" cy="3.3" r="1.08"/>
			</g>
			<circle class="st2" cx="88.53" cy="0.87" r="1.08"/>
		</g>
	</g>
	<g>
		<path class="st4" d="M82.84,5.6H68.59c-0.43,0-0.77-0.35-0.77-0.77v-9.86c0-0.43,0.35-0.77,0.77-0.77h14.25
			c0.43,0,0.77,0.35,0.77,0.77v9.86C83.61,5.25,83.27,5.6,82.84,5.6z"/>
		<g>
			<path class="st6" d="M81.93,4.74H69.5c-0.37,0-0.66-0.3-0.66-0.67v-8.36c0-0.37,0.3-0.67,0.66-0.67h12.42
				c0.37,0,0.67,0.3,0.67,0.67v8.36C82.59,4.44,82.29,4.74,81.93,4.74z"/>
			<path class="st3" d="M71.68,2.81c-0.79,0-1.57-0.06-2.32-0.18v1.03c0,0.34,0.27,0.61,0.61,0.61h11.5c0.34,0,0.61-0.27,0.61-0.61
				v-5.8C80.2,0.79,76.25,2.81,71.68,2.81z"/>
			<path class="st3" d="M77.1,4.27h4.36c0.34,0,0.61-0.27,0.61-0.61v-2.8C80.77,2.32,79.07,3.5,77.1,4.27z"/>
			<path class="st7" d="M69.97-4.48c-0.34,0-0.61,0.27-0.61,0.61v2.23c0.35,0.03,0.71,0.05,1.08,0.05c3.21,0,5.91-1.22,6.71-2.89
				L69.97-4.48L69.97-4.48z"/>
		</g>
	</g>
</g>
<g>
	<path class="st0" d="M16,7.45c0-9.27,17.21-10,15.16,4.14c-1.18,8.13-9.98,16.16-13.61,19.16c-0.9,0.75-2.2,0.75-3.1,0
		c-3.62-3-12.42-11.03-13.61-19.16C-1.21-2.55,16-1.82,16,7.45z"/>
	<path class="st3" d="M17.56,25.65c-0.91,0.63-2.21,0.63-3.11,0c-3.02-2.08-9.91-7.28-13.5-13.49c1.5,7.93,9.97,15.66,13.51,18.59
		c0.9,0.75,2.2,0.75,3.1,0c3.54-2.93,12.01-10.66,13.51-18.59C27.47,18.37,20.57,23.57,17.56,25.65z"/>
	<path class="st1" d="M9.41,2.89c1.16,1.02,0.71,3.44-1.01,5.39s-4.06,2.71-5.22,1.68S2.46,6.53,4.18,4.58S8.24,1.87,9.41,2.89z"/>
	<path class="st1" d="M23.02,2.76c0.82,0.72,0.5,2.42-0.71,3.79c-1.21,1.37-2.85,1.9-3.67,1.18c-0.82-0.72-0.5-2.42,0.71-3.79
		C20.56,2.56,22.21,2.04,23.02,2.76z"/>
</g>
</svg>
