<svg id="Capa_1" data-name="Capa 1" xmlns="http://www.w3.org/2000/svg" viewBox="0 0 141.75 80.23"><defs><style>.cls-1{fill:#f7c9da;}</style></defs><path class="cls-1" d="M236.84,151.36a42.89,42.89,0,0,1,0,5.44c-.54,4.19-3.39,6.33-7.19,7.45-3.39,1-6.9,1.09-10.39,1.38-4.85.4-9.7.86-14.55,1.27-1.85.16-3.71.12-5.58.3-4,.41-8.1.44-12.14.75-6,.45-11.92.83-17.89,1.07-2.46.09-4.93.19-7.4.21-1.09,0-1.45.36-1.39,1.43.23,4.27.66,8.53.68,12.81a17.25,17.25,0,0,1-.47,3.74c-.74,3.48-2.93,4.65-6.41,3.59a35.49,35.49,0,0,1-8-3.9c-12.83-7.75-25.66-15.49-38.42-23.35a80.76,80.76,0,0,1-10.19-7c-2.3-1.94-2.91-4.14-1.65-6.84a14.51,14.51,0,0,1,4.64-5.05c9.66-7.49,19.61-14.59,29.59-21.65a150,150,0,0,1,13.21-8.66,27,27,0,0,1,8-3.29c3.08-.6,5.06.58,6.34,3.55s1.33,5.85,1.62,8.84.26,6.12.62,9.18a2.55,2.55,0,0,0,2.5,2.53,40.11,40.11,0,0,0,9.79.37,2.68,2.68,0,0,1,.49,0c7.21.18,14.4-.36,21.6-.43,4.22,0,8.46-.07,12.68-.29,6.51-.34,13-.89,19.51-1.26s8.53,2.47,9.79,8.29A33.55,33.55,0,0,1,236.84,151.36Z" transform="translate(-95.2 -110.95)"/></svg>