<svg id="Capa_1" data-name="Capa 1" xmlns="http://www.w3.org/2000/svg" viewBox="0 0 100 100"><defs><style>.cls-1{fill:#330508;}.cls-2{fill:#441011;}.cls-3{fill:#f79a10;}</style></defs><path class="cls-1" d="M10,80.05V25.9c.14-.75.07-1.53.28-2.27a14.73,14.73,0,0,1,5.24-7.84,13.93,13.93,0,0,1,4.73-2.44,10.21,10.21,0,0,1,3-.35H76.67a12.52,12.52,0,0,1,8.6,3.57,14.84,14.84,0,0,1,4.32,7.09,10.59,10.59,0,0,1,.33,3q0,26.36,0,52.71a13.32,13.32,0,0,1-5,10.37A12.65,12.65,0,0,1,81.36,92a10,10,0,0,1-3.8.84.51.51,0,0,0-.3.06h-.62a1,1,0,0,0-.75,0H24a1.3,1.3,0,0,0-.87,0h-.62A10.81,10.81,0,0,1,18.7,92a14.72,14.72,0,0,1-7.58-7.48A12.06,12.06,0,0,1,10,80.05Z"/><path class="cls-2" d="M23.11,92.9a.74.74,0,0,1,.87,0Z"/><path class="cls-2" d="M75.89,92.9a.59.59,0,0,1,.75,0Z"/><path class="cls-3" d="M42.37,33.36c1.33,0,2.66,0,4,0a.69.69,0,0,1,.76.55Q49.93,42,52.75,50.18l3.35,9.71,3,8.64c.22.64.12.77-.56.77-2.1,0-4.2,0-6.3,0a.9.9,0,0,1-1-.71c-.79-2.38-1.61-4.75-2.39-7.14a.77.77,0,0,0-.88-.61c-3.7,0-7.41,0-11.11,0a.67.67,0,0,0-.78.56c-.72,2.36-1.5,4.7-2.22,7.06a1,1,0,0,1-1.17.84c-1.82,0-3.65,0-5.48,0-.78,0-.89-.15-.64-.89.82-2.42,1.64-4.83,2.47-7.25q2.59-7.65,5.19-15.31,1.57-4.65,3.13-9.32A8.64,8.64,0,0,0,37.68,34c0-.46.18-.62.63-.61C39.66,33.37,41,33.36,42.37,33.36Z"/><path class="cls-3" d="M70.29,55.88V68.54c0,.91,0,.91-.89.91H63.73c-.8,0-.9-.08-.9-.89V43.25c0-1,0-1,1-1,1.89,0,3.79,0,5.68,0,.57,0,.75.18.75.75C70.28,47.27,70.29,51.57,70.29,55.88Z"/><path class="cls-3" d="M66.64,39.29c-2.59,0-4.18-1.7-4.15-4.39a4,4,0,0,1,4.18-4.09,3.92,3.92,0,0,1,4.1,4.24A4,4,0,0,1,66.64,39.29Z"/><path class="cls-1" d="M42.37,39.81c.33,1.18.65,2.38,1,3.55q1.5,4.95,3,9.87c.16.49.13.66-.47.65-2.39,0-4.78,0-7.17,0-.57,0-.57-.15-.42-.63,1.27-4,2.53-8.11,3.63-12.22.11-.4.17-.8.26-1.21Z"/></svg>