<svg id="Capa_1" data-name="Capa 1" xmlns="http://www.w3.org/2000/svg" viewBox="0 0 100 100"><defs><style>.cls-1{fill:#480a1f;}.cls-2{fill:#b58d91;}.cls-3{fill:#763848;}.cls-4{fill:#6a2b3c;}.cls-5{fill:#622234;}.cls-6{fill:#622235;}.cls-7{fill:#d0b5b7;}.cls-8{fill:#a5787e;}.cls-9{fill:#6e2f3f;}.cls-10{fill:#6e2f40;}.cls-11{fill:#c09da0;}.cls-12{fill:#d5bebf;}.cls-13{fill:#dfcccc;}.cls-14{fill:#d9c3c4;}.cls-15{fill:#b48b90;}.cls-16{fill:#97636c;}.cls-17{fill:#c19ea1;}.cls-18{fill:#d8c2c3;}.cls-19{fill:#8f5862;}.cls-20{fill:#dfcdcd;}.cls-21{fill:#e0cecf;}.cls-22{fill:#a77980;}.cls-23{fill:#874e5a;}.cls-24{fill:#874e5b;}.cls-25{fill:#f53167;}.cls-26{fill:#490a20;}</style></defs><path class="cls-1" d="M76.45,90H23.63c-.17-.08-.34,0-.51,0h-.57a11.52,11.52,0,0,1-5.87-2,13.57,13.57,0,0,1-3.29-2.85,14.81,14.81,0,0,1-3.25-7A5.32,5.32,0,0,1,10.08,77,3.94,3.94,0,0,0,10,76V24.16a2.89,2.89,0,0,0,.08-.83V23a10.66,10.66,0,0,1,1.06-4.4A14.38,14.38,0,0,1,21.3,10.21,12,12,0,0,1,23.38,10H76.69a12.28,12.28,0,0,1,7,2.27,14.6,14.6,0,0,1,6.1,9A9.22,9.22,0,0,1,90,23.15v.62c0,.1,0,.21,0,.31V76c-.07.1,0,.21,0,.32v.62a11.54,11.54,0,0,1-1.57,5.64,14.16,14.16,0,0,1-6.33,6.15,14.72,14.72,0,0,1-2.66,1,9.05,9.05,0,0,1-1.8.23H77C76.79,90,76.62,89.92,76.45,90Z"/><path class="cls-2" d="M76.3,10.06l-.64,0H24.42l-.65,0a0,0,0,0,1,0,0l0,0H76.3s0,0,0,0S76.31,10.06,76.3,10.06Z"/><path class="cls-3" d="M10.14,77l-.06-.1c-.06,0,0-.09,0-.14s0-.21,0-.31V76A2,2,0,0,1,10.14,77Z"/><path class="cls-4" d="M10.15,23.31a1.47,1.47,0,0,1-.15.85V23.7c.07-.09,0-.19,0-.28a.16.16,0,0,1,0-.1A.07.07,0,0,1,10.15,23.31Z"/><path class="cls-5" d="M23.09,89.93c.18,0,.37-.06.54.07h-.54s0,0,0,0Z"/><path class="cls-6" d="M76.45,90c.17-.13.36-.06.54-.07s0,0,0,0l0,0Z"/><path class="cls-7" d="M23.78,10v.06a1.36,1.36,0,0,1-.45,0V10Z"/><path class="cls-7" d="M76.3,10.06V10h.46a.09.09,0,0,0,0,.07A1.42,1.42,0,0,1,76.3,10.06Z"/><path class="cls-8" d="M10.07,23.39a.31.31,0,0,1-.07.31v-.3S10.05,23.35,10.07,23.39Z"/><path class="cls-9" d="M90,24.08a.35.35,0,0,1-.07-.31s0,0,.07,0Z"/><path class="cls-10" d="M89.94,76.31A.34.34,0,0,1,90,76v.31S90,76.34,89.94,76.31Z"/><path class="cls-11" d="M10,76.45a.35.35,0,0,1,.07.31s-.05,0-.07,0Z"/><path class="cls-12" d="M77.6,89.93a.17.17,0,0,0,0,.07h-.3q-.08,0,0-.06Z"/><path class="cls-13" d="M10.07,23.39H10v-.23h.07a.14.14,0,0,1,0,.17Z"/><path class="cls-14" d="M89.94,23.17a.06.06,0,0,1,.06,0v.23c0,.05,0,.05-.06,0Z"/><path class="cls-15" d="M89.94,23.39H90v.23c0,.05,0,0-.06,0Z"/><path class="cls-16" d="M89.94,76.31H90v.23s0,0-.07,0Z"/><path class="cls-17" d="M89.93,76.53H90v.23s0,0-.06,0Z"/><path class="cls-18" d="M22.56,90v-.06h.22c.06,0,.06,0,0,.06Z"/><path class="cls-19" d="M89.94,23.62H90v.15h-.07Z"/><path class="cls-20" d="M10,76.76h.07v.14H10Z"/><path class="cls-21" d="M89.94,76.76H90v.15h-.06Z"/><path class="cls-22" d="M22.79,90a.13.13,0,0,1,0-.06h.15c.06,0,.06,0,0,.07Z"/><path class="cls-23" d="M22.94,90a.2.2,0,0,0,0-.07h.16V90Z"/><path class="cls-24" d="M77,90a.17.17,0,0,1,0-.07h.15s0,0,0,0l0,0Z"/><path class="cls-22" d="M77.14,90v-.07h.15V90Z"/><path class="cls-25" d="M69.06,45.49c0,4.31,0,8.62,0,12.94,0,1.93,0,3.85.18,5.78,0,.55,0,.61-.49.85a18.78,18.78,0,0,1-3.48,1.18,27.15,27.15,0,0,1-7,.89,15.29,15.29,0,0,1-3.81-.41,18.43,18.43,0,0,1-3.3-1.15,11.23,11.23,0,0,1-2.73-1.85,12,12,0,0,1-3.63-6.29,18.4,18.4,0,0,1-.37-6,13.62,13.62,0,0,1,1.86-5.66,14.31,14.31,0,0,1,2.45-3.09A13.78,13.78,0,0,1,53.8,39.6a18.3,18.3,0,0,1,7.42-.86h.19c.14,0,.22,0,.22-.18s0-.2,0-.3v-10c0-.65,0-.69.67-.69h6.32c.36,0,.44.08.44.46,0,.1,0,.2,0,.3Z"/><path class="cls-25" d="M31.69,48.62V31.3c0-.71,0-.75.75-.75h6a2.43,2.43,0,0,1,.27,0,.37.37,0,0,1,.39.34,1.84,1.84,0,0,1,0,.41V65.93c0,.6-.08.81-.78.8-1.92,0-3.84,0-5.75,0-.72,0-.89,0-.89-.91q0-6.78,0-13.55Z"/><path class="cls-8" d="M10.09,23.33l0-.17.07-.15c0,.1,0,.2,0,.3Z"/><path class="cls-26" d="M61.63,52.77v7a2.25,2.25,0,0,0,0,.26c0,.21-.09.3-.27.34a3.23,3.23,0,0,1-.53.08c-.85,0-1.69.11-2.55,0a8.71,8.71,0,0,1-2.47-.57,5.79,5.79,0,0,1-3.17-3.27A8.84,8.84,0,0,1,52,53.47,10.44,10.44,0,0,1,52.3,50a5.82,5.82,0,0,1,.8-1.71,7.63,7.63,0,0,1,3-2.55,8.28,8.28,0,0,1,5.12-.62c.39.07.39.08.39.49Z"/></svg>