<svg id="Capa_1" data-name="Capa 1" xmlns="http://www.w3.org/2000/svg" viewBox="0 0 330 330"><defs><style>.cls-1{fill:#fff;}</style></defs><path d="M222,290.42H201.47c0-9.77,0-19.23,0-28.69,0-10.13-2.71-12.85-12.75-12.88-12.92,0-25.84-.08-38.76,0-7.48.07-10.59,3.25-10.65,10.71-.09,10.15,0,20.31,0,30.8H118.91V103.54c-8.08-2.22-11.4-6-10.47-12.5a10.92,10.92,0,0,1,3.92-6.3c3.32-2.62,7.23-4.47,10.84-6.72,4.3-2.67,8.53-5.44,12.82-8.11,4.9-3.06,9.84-6,14.75-9.09,4.38-2.71,8.91-5.21,13.08-8.24,3.92-2.84,7.89-2.67,11.72-.72,5.59,2.84,10.94,6.17,16.33,9.39,1.63,1,3,2.35,4.6,3.4,6.55,4.33,13.1,8.66,19.72,12.88,4,2.57,8.11,5.07,12.32,7.33,4.92,2.65,4.23,7.24,3.1,11-1,3.39-3.37,6.83-7.92,6.86a6.65,6.65,0,0,0-1.69.55ZM170.22,134.1c9.92,1.51,21.09-11,21-20.88-.11-10.25-10.23-21-21-21.14C160,91.93,149.38,103.59,149.14,113,148.89,122.68,160.83,135.87,170.22,134.1ZM159.64,186V165.82h-20V186Zm41.82,0c0-6.2.09-11.77-.08-17.33,0-1-1.07-3-1.69-3-6.26-.23-12.52-.14-18.67-.14v20.45Zm-41.74,41.68V207.46h-20.2v20.15Zm41.52-20H181v19.92h20.24Z"/><path d="M243,290.33V269.74h19.94V249H243.15V227.89H263V207.17H243.07v-20.8h19.8V165.52H243v-31.4h6.94q20.88,0,41.78,0c5.28,0,11.26,3.78,12.53,7.88,1.15,3.68-1.64,10-6.77,12.05-3.71,1.45-3.19,3.58-3.19,6.14q0,61.82.08,123.65c0,2,0,4,0,6.48Z"/><path d="M97.82,134.15v31H77.15V186H97.51v21H77.21v20.81H97.62v21H77.12v20.8H97.58v20.87h-51c-.11-2-.29-4-.29-5.92,0-40.54-.13-81.08.14-121.62,0-5.06-1.23-8.52-5.5-10.66s-6-5.48-5.18-10.11c.56-3,7.39-7.9,10.93-7.91C63.54,134.13,80.45,134.15,97.82,134.15Z"/><path class="cls-1" d="M170.22,134.1c-9.39,1.77-21.33-11.42-21.08-21.15.24-9.36,10.85-21,21.08-20.87,10.75.16,20.87,10.89,21,21.14C191.31,123.14,180.14,135.61,170.22,134.1Z"/><path class="cls-1" d="M159.64,186h-20V165.82h20Z"/><path class="cls-1" d="M201.46,185.93H181V165.48c6.15,0,12.41-.09,18.67.14.62,0,1.66,1.93,1.69,3C201.55,174.16,201.46,179.73,201.46,185.93Z"/><path class="cls-1" d="M159.72,227.61h-20.2V207.46h20.2Z"/><path class="cls-1" d="M201.24,207.57v19.92H181V207.57Z"/></svg>