<svg id="Capa_1" data-name="Capa 1" xmlns="http://www.w3.org/2000/svg" viewBox="0 0 595.28 841.89"><defs><style>.cls-1{fill:#fff;}.cls-2{fill:#f76773;}.cls-3{fill:#f4136b;}</style></defs><rect class="cls-1" x="111.45" y="194.49" width="55.26" height="44.57"/><path class="cls-2" d="M188,215.79a48.87,48.87,0,1,1-97.74-.67c.2-26.64,22.35-48.37,49.1-48.24A49,49,0,0,1,188,215.79Zm-48.83-42.65a42.61,42.61,0,1,0,42.56,42.67A42.69,42.69,0,0,0,139.12,173.14Z"/><path class="cls-2" d="M139.12,173.14a42.61,42.61,0,1,1-42.65,42.54A42.66,42.66,0,0,1,139.12,173.14Zm25.2,42.67c0-3.35,0-6.69,0-10a16.35,16.35,0,0,0-.16-2.32,14.89,14.89,0,0,0-14.58-12.91c-7-.06-14,0-21,0a12,12,0,0,0-2,.16,15,15,0,0,0-12.73,14.93v20.27a15.23,15.23,0,0,0,.39,3.56A15,15,0,0,0,129.16,241H149a15.62,15.62,0,0,0,3.92-.45,15,15,0,0,0,11.4-14.66C164.34,222.53,164.32,219.17,164.32,215.81Z"/><path class="cls-3" d="M164.32,215.81c0,3.36,0,6.72,0,10.08a15,15,0,0,1-11.4,14.66A15.62,15.62,0,0,1,149,241H129.16a15,15,0,0,1-14.92-11.55,15.23,15.23,0,0,1-.39-3.56V205.62a15,15,0,0,1,12.73-14.93,12,12,0,0,1,2-.16c7,0,14,0,21,0a14.89,14.89,0,0,1,14.58,12.91,16.35,16.35,0,0,1,.16,2.32C164.33,209.12,164.32,212.46,164.32,215.81Zm-25.23,20.26H149a10.3,10.3,0,0,0,10.37-10.39q0-9.94,0-19.9a9.4,9.4,0,0,0-.16-1.84,10.29,10.29,0,0,0-10.37-8.5H129.32a10.58,10.58,0,0,0-1.78.12,10.3,10.3,0,0,0-8.78,10.4q0,9.79,0,19.59a12,12,0,0,0,.1,1.69,10.3,10.3,0,0,0,10.3,8.83Z"/><path class="cls-3" d="M151.71,215.39a12.3,12.3,0,1,1-12.32-12.28A12.32,12.32,0,0,1,151.71,215.39Zm-4.41,0a7.88,7.88,0,1,0-7.81,7.91A7.86,7.86,0,0,0,147.3,215.37Z"/><path class="cls-3" d="M155.37,202.26a2.93,2.93,0,1,1-2.93-2.92A3,3,0,0,1,155.37,202.26Z"/><path class="cls-2" d="M147.3,215.37a7.88,7.88,0,1,1-7.92-7.83A7.89,7.89,0,0,1,147.3,215.37Z"/></svg>