<svg xmlns="http://www.w3.org/2000/svg" viewBox="0 0 127.56 127.56"><defs><style>.cls-1{fill:#fff;}.cls-2{fill:#f76773;}.cls-3{fill:#f4136b;}</style></defs><g id="Capa_1" data-name="Capa 1"><rect class="cls-1" x="36.15" y="42.52" width="55.26" height="44.57"/><path class="cls-2" d="M112.65,63.82a48.87,48.87,0,1,1-97.74-.67c.2-26.64,22.35-48.37,49.1-48.24A49,49,0,0,1,112.65,63.82ZM63.81,21.17a42.61,42.61,0,1,0,42.57,42.67A42.69,42.69,0,0,0,63.81,21.17Z"/><path class="cls-2" d="M63.81,21.17A42.61,42.61,0,1,1,21.17,63.71,42.67,42.67,0,0,1,63.81,21.17ZM89,63.84c0-3.34,0-6.69,0-10a16.1,16.1,0,0,0-.16-2.31A14.89,14.89,0,0,0,74.28,38.58c-7-.06-14,0-21,0a12.17,12.17,0,0,0-2,.16A15,15,0,0,0,38.55,53.65V73.92a15.23,15.23,0,0,0,.39,3.56A15,15,0,0,0,53.85,89q9.93,0,19.85,0a15.62,15.62,0,0,0,3.92-.45A15,15,0,0,0,89,73.92C89,70.56,89,67.2,89,63.84Z"/><path class="cls-3" d="M89,63.84c0,3.36,0,6.72,0,10.08a15,15,0,0,1-11.4,14.66A15.62,15.62,0,0,1,73.7,89q-9.91,0-19.85,0A15,15,0,0,1,38.94,77.48a15.23,15.23,0,0,1-.39-3.56V53.65A15,15,0,0,1,51.27,38.72a12.17,12.17,0,0,1,2-.16c7,0,14,0,21,0A14.89,14.89,0,0,1,88.86,51.5,16.1,16.1,0,0,1,89,53.81C89,57.15,89,60.5,89,63.84ZM63.79,84.1h9.93A10.3,10.3,0,0,0,84.09,73.71V53.81A9.47,9.47,0,0,0,83.92,52a10.28,10.28,0,0,0-10.36-8.5H54a10.77,10.77,0,0,0-1.79.12A10.29,10.29,0,0,0,43.46,54V73.58a13.7,13.7,0,0,0,.11,1.69,10.3,10.3,0,0,0,10.3,8.83Z"/><path class="cls-3" d="M76.41,63.43A12.3,12.3,0,1,1,64.09,51.14,12.32,12.32,0,0,1,76.41,63.43ZM72,63.4a7.88,7.88,0,1,0-7.81,7.91A7.86,7.86,0,0,0,72,63.4Z"/><path class="cls-3" d="M80.07,50.29a2.93,2.93,0,1,1-2.93-2.92A3,3,0,0,1,80.07,50.29Z"/><path class="cls-2" d="M72,63.4a7.88,7.88,0,1,1-7.93-7.83A7.89,7.89,0,0,1,72,63.4Z"/></g></svg>