<svg id="Capa_1" data-name="Capa 1" xmlns="http://www.w3.org/2000/svg" viewBox="0 0 100 100"><defs><style>.cls-1{fill:#0f2037;}.cls-2{fill:#e8e7e8;}.cls-3{fill:#2ea3c9;}</style></defs><path class="cls-1" d="M90,23.46V76.61c-.08,0-.06.11-.07.17a14.83,14.83,0,0,1-2,6.23,14.64,14.64,0,0,1-2.21,2.81,14.15,14.15,0,0,1-4.59,3,13.4,13.4,0,0,1-5.35,1H24.32a14.59,14.59,0,0,1-2.38-.18,12.54,12.54,0,0,1-4.2-1.44,13.93,13.93,0,0,1-3.64-2.74,16,16,0,0,1-2.2-3,13.94,13.94,0,0,1-1.83-6.8q0-25.71,0-51.42A14.61,14.61,0,0,1,12.14,17a15.14,15.14,0,0,1,2.28-2.88,14,14,0,0,1,4.12-2.81,13,13,0,0,1,5.51-1.2H76a13.3,13.3,0,0,1,6.4,1.66A13.91,13.91,0,0,1,86,14.44a16.07,16.07,0,0,1,2.18,3,15.47,15.47,0,0,1,1.66,4.74A12.16,12.16,0,0,0,90,23.46Zm-52.22,36V59q0-14,0-28c0-.5,0-.54-.52-.54H31c-.46,0-.58.13-.58.57V65.81c0,.54.14.68.66.68H51.89c.53,0,.66-.13.73-.65.16-1.06.34-2.12.51-3.18.13-.84.29-1.68.42-2.52.08-.53,0-.63-.55-.64H37.78Zm26.6-16.77c0-.22,0-.35,0-.48A7.68,7.68,0,0,0,64,40c-.22-.71-.39-.86-1.12-.86-1.81,0-3.62,0-5.43,0-.4,0-.53.15-.47.55s.08.66.1,1c.12,1.89.15,3.77.15,5.66q0,9.74,0,19.48c0,.56.13.69.68.69,1,0,2,0,3,0s2.13,0,3.2,0c.44,0,.55-.11.57-.54v-.34c0-5.35,0-10.7,0-16.05a1.85,1.85,0,0,1,1.12-1.88l.06,0a12.75,12.75,0,0,1,5.34-1.45c.54,0,1.08,0,1.63,0,.37,0,.5-.11.5-.42V39.08a.4.4,0,0,0-.42-.45,11.3,11.3,0,0,0-1.93.11,9.58,9.58,0,0,0-4.23,1.85A16.38,16.38,0,0,0,64.38,42.73Z"/><path class="cls-2" d="M76,10v.06h-52V10Z"/><path class="cls-3" d="M37.78,59.5H53c.53,0,.63.11.55.64-.13.84-.29,1.68-.42,2.52-.17,1.06-.35,2.12-.51,3.18-.07.52-.2.65-.73.65H31c-.52,0-.66-.14-.66-.68V31.08c0-.44.12-.57.58-.57h6.29c.49,0,.52,0,.52.54q0,14,0,28Z"/><path class="cls-3" d="M64.38,42.73a16.38,16.38,0,0,1,2.39-2.14A9.58,9.58,0,0,1,71,38.74a11.3,11.3,0,0,1,1.93-.11.4.4,0,0,1,.42.45v6.73c0,.31-.13.42-.5.42-.55,0-1.09,0-1.63,0a12.75,12.75,0,0,0-5.34,1.45l-.06,0A1.85,1.85,0,0,0,64.7,49.6c.06,5.35,0,10.7,0,16.05V66c0,.43-.13.54-.57.54-1.07,0-2.13,0-3.2,0s-2,0-3,0c-.55,0-.68-.13-.68-.69q0-9.73,0-19.48c0-1.89,0-3.77-.15-5.66,0-.33-.06-.66-.1-1s.07-.55.47-.55c1.81,0,3.62,0,5.43,0,.73,0,.9.15,1.12.86a7.68,7.68,0,0,1,.34,2.23C64.36,42.38,64.37,42.51,64.38,42.73Z"/></svg>