<svg id="Capa_1" data-name="Capa 1" xmlns="http://www.w3.org/2000/svg" viewBox="0 0 595.28 841.89"><defs><style>.cls-1{fill:#f76773;}.cls-2{fill:#fff;stroke:#f4136b;stroke-miterlimit:10;stroke-width:3px;}.cls-3{fill:#232323;}</style></defs><path class="cls-1" d="M198.31,215A43,43,0,0,1,182.69,212c-30.89-11.79-41.08-51.17-19.4-76.11,13.35-15.35,30.53-20.64,50-15s30.74,19.31,34.33,39.26a19,19,0,0,1,.36,5.22,6.69,6.69,0,0,1-2.53-1.87q-7.71-7.68-15.39-15.41a1.71,1.71,0,0,0-1-.67c-.37-.4-.86-.26-1.3-.26q-27.85,0-55.72,0c-.32,0-.74-.2-1,.35l3.1,2.89,13.39,12.5-.41,1.6c-.43-.35-.86-.68-1.27-1.05Q179,157,172.09,150.68c-.38-.34-.66-.89-1.41-.89v34.46c.14.63.72,1,1,1.5,0,.43-.92.54-.42,1.16.06.66.55,1,1,1.44,1.29,1.24,2.58,2.48,3.85,3.74,3.42,3.39,6.89,6.73,10.23,10.2,3.69,3.83,7.71,7.33,11.22,11.33C197.88,214,198.31,214.4,198.31,215Z"/><path class="cls-1" d="M229.09,147.37a1.71,1.71,0,0,1,1,.67q7.68,7.71,15.39,15.41a6.69,6.69,0,0,0,2.53,1.87,45,45,0,0,1-2.83,18.35,36.36,36.36,0,0,1-3,6.46c-2,3.35-4,6.73-6.86,9.44a.8.8,0,0,0-.55.61,3.16,3.16,0,0,1-1,1c-.48.15-1.58-.35-1,.93a6.93,6.93,0,0,1-1.84,1.62c-.48-.25.68-.54,0,0s-1.83.7-1.56,1.27a46,46,0,0,1-21.33,9.41,36.65,36.65,0,0,1-9.75.56c0-.62-.43-1-.79-1.4-3.51-4-7.53-7.5-11.22-11.33-3.34-3.47-6.81-6.81-10.23-10.2-1.27-1.26-2.56-2.5-3.85-3.74-.43-.42-.92-.78-1-1.44.51,0,1-.07,1.52-.07h54.53a2.58,2.58,0,0,0,1.62-.21,5.31,5.31,0,0,0-.47-.58q-9.31-8.62-18.63-17.26c-.63-.58-1-.5-1.59.05-2.41,2.28-4.88,4.48-7.28,6.77-.73.69-1.2.7-1.93,0-2.36-2.26-4.81-4.42-7.16-6.68-.75-.73-1.2-.65-1.91,0-3,2.82-6,5.58-9,8.35s-6.18,5.64-9.27,8.45c-.26-.54-.84-.87-1-1.5a2.46,2.46,0,0,0,1.14-.74l17-15.73c.32-.3.77-.55.66-1.12-.21-1.38-.31-1.48-1.12-1.06a4.13,4.13,0,0,1-1.25-1.14l.41-1.6a4.62,4.62,0,0,1,.55.41c3.69,3.4,7.38,6.79,11,10.23.64.6,1,.63,1.69,0,1.55-1.51,3.16-2.95,4.75-4.41Zm.2,19.6q0-8,0-16c0-.38.22-.92-.26-1.11s-.61.32-.87.55q-8.51,7.86-17,15.71c-.72.66-.71,1,0,1.71,5.66,5.19,11.28,10.41,16.92,15.62.29.26.56.8,1,.62s.25-.82.25-1.24Q229.3,174.9,229.29,167Z"/><path class="cls-2" d="M229.09,147.37l-23.53,21.72c-1.59,1.46-3.2,2.9-4.75,4.41-.64.63-1.05.6-1.69,0-3.66-3.44-7.35-6.83-11-10.23a4.62,4.62,0,0,0-.55-.41l-13.39-12.5-3.1-2.89c.29-.55.71-.35,1-.35q27.85,0,55.72,0C228.23,147.11,228.72,147,229.09,147.37Z"/><path class="cls-2" d="M171.66,185.75c3.09-2.81,6.19-5.62,9.27-8.45s6-5.53,9-8.35c.71-.68,1.16-.76,1.91,0,2.35,2.26,4.8,4.42,7.16,6.68.73.7,1.2.69,1.93,0,2.4-2.29,4.87-4.49,7.28-6.77.58-.55,1-.63,1.59-.05q9.3,8.66,18.63,17.26a5.31,5.31,0,0,1,.47.58,2.58,2.58,0,0,1-1.62.21H172.76c-.51,0-1,0-1.52.07C170.74,186.29,171.62,186.18,171.66,185.75Z"/><path class="cls-2" d="M187.12,164.46a4.13,4.13,0,0,0,1.25,1.14,2.86,2.86,0,0,0,1.12,1.06c.11.57-.34.82-.66,1.12l-17,15.73a2.46,2.46,0,0,1-1.14.74V149.79c.75,0,1,.55,1.41.89Q179,157,185.85,163.41C186.26,163.78,186.69,164.11,187.12,164.46Z"/><path class="cls-2" d="M229.29,167q0,7.92,0,15.86c0,.42.25,1-.25,1.24s-.69-.36-1-.62c-5.64-5.21-11.26-10.43-16.92-15.62-.72-.66-.73-1.05,0-1.71q8.55-7.83,17-15.71c.26-.23.5-.7.87-.55s.26.73.26,1.11Q229.3,159,229.29,167Z"/><path class="cls-3" d="M189.49,166.66a2.86,2.86,0,0,1-1.12-1.06C189.18,165.18,189.28,165.28,189.49,166.66Z"/></svg>