<svg xmlns="http://www.w3.org/2000/svg" viewBox="0 0 127.56 127.56"><defs><style>.cls-1{fill:#f76773;}.cls-2{fill:#fff;stroke:#f4136b;stroke-miterlimit:10;stroke-width:3px;}.cls-3{fill:#232323;}</style></defs><g id="Capa_1" data-name="Capa 1"><path class="cls-1" d="M62.26,115.38a43.26,43.26,0,0,1-15.62-3.06C15.75,100.53,5.56,61.15,27.24,36.21c13.35-15.35,30.53-20.64,50-15S108,40.51,111.61,60.46a19.41,19.41,0,0,1,.36,5.22,6.62,6.62,0,0,1-2.53-1.87q-7.71-7.68-15.39-15.41a1.74,1.74,0,0,0-1-.67c-.37-.4-.86-.26-1.3-.26H36c-.32,0-.74-.19-1,.36l3.1,2.89,13.39,12.5-.41,1.6c-.43-.35-.87-.68-1.27-1.06Q42.92,57.4,36,51c-.37-.35-.65-.9-1.4-.89V84.61c.13.63.72,1,1,1.5,0,.42-.92.54-.42,1.16.06.66.55,1,1,1.44C37.46,90,38.75,91.19,40,92.44c3.42,3.39,6.89,6.74,10.23,10.21C53.94,106.48,58,110,61.47,114,61.83,114.4,62.26,114.76,62.26,115.38Z"/><path class="cls-1" d="M93,47.73a1.74,1.74,0,0,1,1,.67q7.68,7.71,15.39,15.41A6.62,6.62,0,0,0,112,65.68,45.05,45.05,0,0,1,109.14,84a36.36,36.36,0,0,1-3,6.46c-2,3.35-4,6.73-6.86,9.44a.8.8,0,0,0-.55.61,3.16,3.16,0,0,1-1,1c-.48.15-1.58-.35-1,.93a6.79,6.79,0,0,1-1.84,1.62c-.47-.26.69-.54,0,0s-1.82.7-1.55,1.27A46,46,0,0,1,72,114.82a36.55,36.55,0,0,1-9.74.56c0-.62-.43-1-.79-1.4-3.51-4-7.53-7.5-11.22-11.33C46.91,99.18,43.44,95.83,40,92.44c-1.27-1.25-2.56-2.49-3.85-3.73-.43-.42-.92-.78-1-1.44.51,0,1-.07,1.52-.07H91.24A2.59,2.59,0,0,0,92.86,87a5.53,5.53,0,0,0-.47-.58C86.18,80.65,80,74.91,73.76,69.14c-.63-.58-1-.5-1.6,0-2.4,2.28-4.88,4.48-7.27,6.77-.73.69-1.2.7-1.93,0-2.36-2.26-4.81-4.42-7.16-6.68-.76-.73-1.2-.65-1.91,0-3,2.81-6,5.58-9,8.35s-6.18,5.64-9.27,8.45c-.26-.54-.85-.87-1-1.5a2.38,2.38,0,0,0,1.13-.74l17-15.73c.32-.3.77-.55.66-1.12-.21-1.39-.31-1.48-1.13-1.06a4.21,4.21,0,0,1-1.24-1.14l.41-1.6a4.62,4.62,0,0,1,.55.41c3.69,3.4,7.38,6.79,11,10.22.64.61,1.05.64,1.69,0,1.55-1.51,3.16-3,4.75-4.41Zm.2,19.6q0-8,0-16c0-.38.22-.92-.26-1.11s-.61.32-.87.55q-8.52,7.86-17,15.71c-.72.66-.71,1,0,1.71Q83.56,76,92,83.81c.29.26.56.8,1,.62s.25-.82.26-1.25Q93.24,75.26,93.24,67.33Z"/><path class="cls-2" d="M93,47.73,69.51,69.45c-1.59,1.46-3.2,2.9-4.75,4.41-.64.63-1.05.6-1.69,0C59.41,70.42,55.72,67,52,63.63a4.62,4.62,0,0,0-.55-.41L38.09,50.72,35,47.83c.29-.55.71-.36,1-.36H91.74C92.18,47.47,92.67,47.33,93,47.73Z"/><path class="cls-2" d="M35.61,86.11c3.09-2.81,6.19-5.62,9.27-8.45s6-5.54,9-8.35c.71-.68,1.15-.76,1.91,0C58.15,71.54,60.6,73.7,63,76c.73.7,1.2.69,1.93,0,2.39-2.29,4.87-4.49,7.27-6.77.59-.55,1-.63,1.6,0C80,74.91,86.18,80.65,92.39,86.4a5.53,5.53,0,0,1,.47.58,2.59,2.59,0,0,1-1.62.21H36.71c-.51,0-1,0-1.52.07C34.69,86.65,35.57,86.53,35.61,86.11Z"/><path class="cls-2" d="M51.07,64.82A4.21,4.21,0,0,0,52.31,66,3,3,0,0,0,53.44,67c.11.57-.34.82-.66,1.12l-17,15.73a2.38,2.38,0,0,1-1.13.74V50.15c.75,0,1,.54,1.4.89q6.9,6.35,13.77,12.72C50.2,64.14,50.64,64.47,51.07,64.82Z"/><path class="cls-2" d="M93.24,67.33q0,7.92,0,15.85c0,.43.25,1-.26,1.25s-.68-.36-1-.62Q83.54,76,75.08,68.19c-.72-.66-.73-1,0-1.71q8.54-7.83,17-15.71c.26-.23.49-.7.87-.55s.26.73.26,1.11Q93.24,59.33,93.24,67.33Z"/><path class="cls-3" d="M53.44,67A3,3,0,0,1,52.31,66C53.13,65.54,53.23,65.63,53.44,67Z"/></g></svg>