<svg id="Capa_1" data-name="Capa 1" xmlns="http://www.w3.org/2000/svg" viewBox="0 0 100 100"><defs><style>.cls-1{fill:#091227;}.cls-2{fill:#2895c3;}</style></defs><path class="cls-1" d="M10.38,24.61a18.57,18.57,0,0,1,3.39-7.85c3.44-4.41,8.07-6.43,13.54-6.73,6.27-.35,12.55-.17,18.83-.19,7.8,0,15.59,0,23.39.05a27.75,27.75,0,0,1,7.7.85C83.8,12.66,87.84,17,89.43,23.66c.06.25.14.49.21.74a16.42,16.42,0,0,1,.57,4.29c.23,12.94.07,25.88.12,38.81,0,2.13-.13,4.26-.24,6.39a6.42,6.42,0,0,0-.22,1.16c-.06.3-.14.6-.18.9a18.62,18.62,0,0,1-1.42,4.37,18.16,18.16,0,0,1-4.17,5.4c-.7.57-1.48,1-2.14,1.68a7.47,7.47,0,0,1-2.7,1.39,35,35,0,0,1-4.53,1,36.45,36.45,0,0,1-3.76.33c-13.92,0-27.84,0-41.76,0A20.38,20.38,0,0,1,18.75,87.7a19.82,19.82,0,0,1-5.06-4.34,19.07,19.07,0,0,1-3.23-6.6,24.45,24.45,0,0,1-.68-6.14c0-8.35-.16-16.69-.11-25,0-2.68,0-5.37,0-8s0-5.5.12-8.25A16.43,16.43,0,0,1,10.38,24.61Z"/><path class="cls-2" d="M26.06,47.24c0-5.8,0-11.6,0-17.39,0-.88.23-1.19,1.14-1.17,4.27.13,8.55-.31,12.82,0,4,.31,7.71,1.53,10.34,4.82,5.71,7.14,1.93,17.74-7.11,20a25.57,25.57,0,0,1-8,.7c-1.36-.09-1.36-.1-1.36,1.3,0,3.11,0,6.22,0,9.33,0,.8-.26,1.1-1.06,1.09-1.94,0-3.89,0-5.83,0-.81,0-1-.32-1-1C26.07,59,26.06,53.13,26.06,47.24Z"/><path class="cls-2" d="M56.19,61.17c0-.87,0-1.75,0-2.62s.25-.9.91-.53a16,16,0,0,0,8.68,2,5,5,0,0,0,2.16-.51,1.45,1.45,0,0,0,.3-2.54,8.21,8.21,0,0,0-2.08-1.23c-1.58-.72-3.2-1.4-4.77-2.14-3.84-1.81-5.64-4.7-5.35-8.5.27-3.41,2.73-6.29,6.56-7.33A20.94,20.94,0,0,1,74,38a1.15,1.15,0,0,1,.9,1.3q0,2.47,0,4.95c0,.81-.27,1-1,.65a16.52,16.52,0,0,0-7.36-1.46,4.93,4.93,0,0,0-2.08.42,1.47,1.47,0,0,0-.42,2.59,7.38,7.38,0,0,0,2.07,1.25,55.64,55.64,0,0,1,6,2.71c2.3,1.35,4.07,3.11,4.33,5.94.42,4.58-1.75,7.94-6.19,9.31a20.34,20.34,0,0,1-13.14-.51,1.27,1.27,0,0,1-.94-1.4C56.22,62.92,56.19,62.05,56.19,61.17Z"/><path class="cls-1" d="M33.88,41.44c0-1.68,0-3.37,0-5,0-.69.24-.9.9-.87,1.71.07,3.43.06,5.14.16a5.43,5.43,0,0,1,5.15,4.58,5.36,5.36,0,0,1-3.24,6.26,16.8,16.8,0,0,1-7.45.82c-.54,0-.49-.4-.49-.76Z"/></svg>