<svg id="Capa_1" data-name="Capa 1" xmlns="http://www.w3.org/2000/svg" viewBox="0 0 595.28 841.89"><defs><style>.cls-1{fill:#f76773;}.cls-2{fill:#fff;stroke:#f4136b;stroke-miterlimit:10;stroke-width:5px;}</style></defs><path class="cls-1" d="M201.62,265l2.87-8.57q2.72-8.08,5.46-16.18a1.1,1.1,0,0,0-.13-1,44,44,0,0,1-6.27-19.86c-1.11-18.49,6-33,21.32-43.43a43.56,43.56,0,0,1,28.71-7.44c17.42,1.46,30.51,10,38.6,25.48,7.07,13.56,7.22,27.64.74,41.48-6,12.75-15.95,21.21-29.5,25.16-12.22,3.56-24,2.17-35.3-3.74a1.26,1.26,0,0,0-1.07-.05l-24.41,7.84C202.36,264.81,202.07,264.88,201.62,265ZM213.83,253l.68-.2,13.66-4.37a1.29,1.29,0,0,1,1.2.11,38.83,38.83,0,0,0,42.78-.49,39.12,39.12,0,0,0,10.78-54.27,39.23,39.23,0,0,0-39.38-16.83,39.3,39.3,0,0,0-32,43.29,37.25,37.25,0,0,0,6.72,17.61,1.31,1.31,0,0,1,.21,1.32c-1,2.94-2,5.9-3,8.85C215,249.59,214.41,251.21,213.83,253Z"/><path class="cls-1" d="M213.83,253c.58-1.74,1.12-3.36,1.67-5,1-2.95,2-5.91,3-8.85a1.31,1.31,0,0,0-.21-1.32,37.25,37.25,0,0,1-6.72-17.61,39.3,39.3,0,0,1,32-43.29,39.23,39.23,0,0,1,39.38,16.83A39.12,39.12,0,0,1,272.15,248a38.83,38.83,0,0,1-42.78.49,1.29,1.29,0,0,0-1.2-.11l-13.66,4.37ZM235,192.5a4,4,0,0,0-3.09,1,13.66,13.66,0,0,0-4.49,6.89,16.09,16.09,0,0,0,1.13,10.88,51.89,51.89,0,0,0,6.3,10.16,45.63,45.63,0,0,0,12.27,11.64,55.19,55.19,0,0,0,12.67,5.42c3.63,1.17,7,.34,10.27-1.43s4.51-4.52,4.8-8a2.13,2.13,0,0,0-1.34-2.35c-1.72-.86-3.38-1.82-5.09-2.72a46.21,46.21,0,0,0-4.34-2.17,1.69,1.69,0,0,0-2.35.56c-1,1.29-2.07,2.49-3.15,3.69-1.77,2-1.76,1.94-4.17.81a32.24,32.24,0,0,1-14.92-14.18c-.72-1.33-.64-1.69.43-2.79a15.82,15.82,0,0,0,3.07-3.83,2.39,2.39,0,0,0,.12-2.1c-.62-1.58-1.19-3.18-1.78-4.76s-1.15-3.19-1.77-4.77c-.35-.88-.8-1.73-1.92-1.82C236.74,192.57,235.85,192.54,235,192.5Z"/><path class="cls-2" d="M235,192.5c.88,0,1.77.07,2.65.14,1.12.09,1.57.94,1.92,1.82.62,1.58,1.18,3.18,1.77,4.77s1.16,3.18,1.78,4.76a2.39,2.39,0,0,1-.12,2.1,15.82,15.82,0,0,1-3.07,3.83c-1.07,1.1-1.15,1.46-.43,2.79a32.24,32.24,0,0,0,14.92,14.18c2.41,1.13,2.4,1.15,4.17-.81,1.08-1.2,2.16-2.4,3.15-3.69a1.69,1.69,0,0,1,2.35-.56A46.21,46.21,0,0,1,268.4,224c1.71.9,3.37,1.86,5.09,2.72a2.13,2.13,0,0,1,1.34,2.35c-.29,3.46-1.56,6.24-4.8,8s-6.64,2.6-10.27,1.43a55.19,55.19,0,0,1-12.67-5.42,45.63,45.63,0,0,1-12.27-11.64,51.89,51.89,0,0,1-6.3-10.16,16.09,16.09,0,0,1-1.13-10.88,13.66,13.66,0,0,1,4.49-6.89A4,4,0,0,1,235,192.5Z"/></svg>