<svg xmlns="http://www.w3.org/2000/svg" viewBox="0 0 127.56 127.56"><defs><style>.cls-1{fill:#f76773;}.cls-2{fill:#fff;stroke:#f4136b;stroke-miterlimit:10;stroke-width:5px;}</style></defs><g id="Capa_1" data-name="Capa 1"><path class="cls-1" d="M15.77,112.09l2.87-8.57q2.71-8.08,5.45-16.17a1.06,1.06,0,0,0-.12-1A44,44,0,0,1,17.7,66.5c-1.11-18.48,6-33,21.32-43.42a43.54,43.54,0,0,1,28.71-7.44c17.42,1.46,30.51,10,38.6,25.48,7.07,13.56,7.22,27.64.74,41.47-6,12.76-15.95,21.22-29.5,25.17-12.22,3.55-24,2.17-35.3-3.74A1.23,1.23,0,0,0,41.2,104l-24.41,7.85C16.5,111.9,16.22,112,15.77,112.09ZM28,100l.68-.19q6.82-2.19,13.66-4.38a1.24,1.24,0,0,1,1.19.12,38.82,38.82,0,0,0,42.79-.5A38,38,0,0,0,103.15,69a38.28,38.28,0,0,0-6.07-28.17A39.21,39.21,0,0,0,57.7,24a39.3,39.3,0,0,0-32,43.29,37.33,37.33,0,0,0,6.72,17.61,1.31,1.31,0,0,1,.21,1.32c-1,2.94-2,5.9-3,8.85C29.1,96.67,28.56,98.29,28,100Z"/><path class="cls-1" d="M28,100c.58-1.74,1.12-3.36,1.67-5,1-3,2-5.91,3-8.85a1.31,1.31,0,0,0-.21-1.32,37.33,37.33,0,0,1-6.72-17.61A39.3,39.3,0,0,1,57.7,24,39.21,39.21,0,0,1,97.08,40.82,38.28,38.28,0,0,1,103.15,69,38,38,0,0,1,86.3,95.08a38.82,38.82,0,0,1-42.79.5,1.24,1.24,0,0,0-1.19-.12q-6.82,2.21-13.66,4.38ZM49.12,39.58a3.94,3.94,0,0,0-3.09,1,13.65,13.65,0,0,0-4.5,6.88,16.14,16.14,0,0,0,1.14,10.88A51.31,51.31,0,0,0,49,68.51,45.78,45.78,0,0,0,61.24,80.15,56.19,56.19,0,0,0,73.9,85.57c3.64,1.16,7,.33,10.28-1.43s4.51-4.52,4.8-8a2.13,2.13,0,0,0-1.34-2.35c-1.72-.86-3.39-1.82-5.09-2.71a44,44,0,0,0-4.34-2.18,1.69,1.69,0,0,0-2.35.57c-1,1.28-2.07,2.48-3.16,3.69-1.76,2-1.75,1.93-4.16.81A32.21,32.21,0,0,1,53.62,59.79c-.72-1.32-.64-1.68.43-2.78a15.87,15.87,0,0,0,3.07-3.84,2.38,2.38,0,0,0,.12-2.1c-.62-1.57-1.19-3.17-1.78-4.76s-1.15-3.19-1.77-4.76c-.35-.89-.81-1.73-1.92-1.82C50.89,39.66,50,39.63,49.12,39.58Z"/><path class="cls-2" d="M49.12,39.58c.88.05,1.77.08,2.65.15,1.11.09,1.57.93,1.92,1.82.62,1.57,1.18,3.17,1.77,4.76s1.16,3.19,1.78,4.76a2.38,2.38,0,0,1-.12,2.1A15.87,15.87,0,0,1,54.05,57c-1.07,1.1-1.15,1.46-.43,2.78A32.21,32.21,0,0,0,68.54,74c2.41,1.12,2.4,1.15,4.16-.81,1.09-1.21,2.17-2.41,3.16-3.69a1.69,1.69,0,0,1,2.35-.57,44,44,0,0,1,4.34,2.18c1.7.89,3.37,1.85,5.09,2.71A2.13,2.13,0,0,1,89,76.15c-.29,3.47-1.57,6.25-4.8,8s-6.64,2.59-10.28,1.43a56.19,56.19,0,0,1-12.66-5.42A45.78,45.78,0,0,1,49,68.51a51.31,51.31,0,0,1-6.3-10.17,16.14,16.14,0,0,1-1.14-10.88A13.65,13.65,0,0,1,46,40.58,3.94,3.94,0,0,1,49.12,39.58Z"/></g></svg>